<!-- icon666.com - MILLIONS OF FREE VECTOR ICONS --><svg viewBox="0 0 448 448" xmlns="http://www.w3.org/2000/svg"><path d="m0 392.070312v55.449219h55.449219c-3.691407-28.957031-26.492188-51.757812-55.449219-55.449219zm0 0" fill="#000000" style="fill: rgb(165, 178, 186);"></path><path d="m0 223.519531v55.449219c28.957031-3.691406 51.757812-26.492188 55.449219-55.449219zm0 0" fill="#000000" style="fill: rgb(165, 178, 186);"></path><path d="m208 319.519531c0 4.417969 3.582031 8 8 8v-16c-4.417969 0-8 3.582031-8 8zm0 0" fill="#000000" style="fill: rgb(165, 178, 186);"></path><path d="m296 111.519531h48v16h-48zm0 0" fill="#000000" style="fill: rgb(165, 178, 186);"></path><path d="m304 143.519531h32v64h-32zm0 0" fill="#000000" style="fill: rgb(165, 178, 186);"></path><path d="m448 447.519531v-55.449219c-28.957031 3.691407-51.757812 26.492188-55.449219 55.449219zm0 0" fill="#000000" style="fill: rgb(165, 178, 186);"></path><path d="m232 359.519531c4.417969 0 8-3.582031 8-8s-3.582031-8-8-8zm0 0" fill="#000000" style="fill: rgb(165, 178, 186);"></path><path d="m224 255.519531c-44.183594 0-80 35.816407-80 80 0 44.183594 35.816406 80 80 80s80-35.816406 80-80c-.046875-44.164062-35.835938-79.949219-80-80zm-48 88h-16v-16h16zm80 8c0 13.253907-10.746094 24-24 24v8h-16v-8c-13.253906 0-24-10.746093-24-24h16c0 4.417969 3.582031 8 8 8v-16c-13.253906 0-24-10.746093-24-24 0-13.253906 10.746094-24 24-24v-8h16v8c13.253906 0 24 10.746094 24 24h-16c0-4.417969-3.582031-8-8-8v16c13.253906 0 24 10.746094 24 24zm32-8h-16v-16h16zm0 0" fill="#000000" style="fill: rgb(165, 178, 186);"></path><path d="m448 295.113281c-37.828125-3.851562-67.738281-33.765625-71.59375-71.59375h-304.796875c-3.855469 37.835938-33.773437 67.746094-71.609375 71.59375v80.796875c37.835938 3.855469 67.746094 33.773438 71.59375 71.609375h304.796875c3.855469-37.835937 33.773437-67.746093 71.609375-71.589843zm-224 136.40625c-53.019531 0-96-42.980469-96-96s42.980469-96 96-96 96 42.980469 96 96c-.058594 52.996094-43.003906 95.941407-96 96zm0 0" fill="#000000" style="fill: rgb(165, 178, 186);"></path><path d="m104 111.519531h48v16h-48zm0 0" fill="#000000" style="fill: rgb(165, 178, 186);"></path><path d="m72 53.191406v18.328125h304v-18.328125l-152-53.191406zm176-13.671875c0 13.253907-10.746094 24-24 24s-24-10.746093-24-24c0-13.253906 10.746094-24 24-24s24 10.746094 24 24zm0 0" fill="#000000" style="fill: rgb(165, 178, 186);"></path><path d="m200 111.519531h48v16h-48zm0 0" fill="#000000" style="fill: rgb(165, 178, 186);"></path><path d="m448 223.519531h-55.449219c3.691407 28.957031 26.492188 51.757813 55.449219 55.449219zm0 0" fill="#000000" style="fill: rgb(165, 178, 186);"></path><path d="m232 39.519531c0 4.417969-3.582031 8-8 8s-8-3.582031-8-8 3.582031-8 8-8 8 3.582031 8 8zm0 0" fill="#000000" style="fill: rgb(165, 178, 186);"></path><path d="m112 143.519531h32v64h-32zm0 0" fill="#000000" style="fill: rgb(165, 178, 186);"></path><path d="m208 143.519531h32v64h-32zm0 0" fill="#000000" style="fill: rgb(165, 178, 186);"></path><path d="m88 87.519531h272v8h-272zm0 0" fill="#000000" style="fill: rgb(165, 178, 186);"></path><path d="m24 127.519531h16v16h-16zm0 0" fill="#000000" style="fill: rgb(165, 178, 186);"></path><path d="m24 159.519531h16v16h-16zm0 0" fill="#000000" style="fill: rgb(165, 178, 186);"></path><path d="m8 143.519531h16v16h-16zm0 0" fill="#000000" style="fill: rgb(165, 178, 186);"></path><path d="m40 143.519531h16v16h-16zm0 0" fill="#000000" style="fill: rgb(165, 178, 186);"></path><path d="m408 127.519531h16v16h-16zm0 0" fill="#000000" style="fill: rgb(165, 178, 186);"></path><path d="m408 159.519531h16v16h-16zm0 0" fill="#000000" style="fill: rgb(165, 178, 186);"></path><path d="m392 143.519531h16v16h-16zm0 0" fill="#000000" style="fill: rgb(165, 178, 186);"></path><path d="m424 143.519531h16v16h-16zm0 0" fill="#000000" style="fill: rgb(165, 178, 186);"></path></svg>