<!-- icon666.com - MILLIONS OF FREE VECTOR ICONS --><svg id="Layer_1" viewBox="0 0 490.7 437.2" xmlns="http://www.w3.org/2000/svg"><g id="Layer_30"><g><path d="m281.5 407.6h-6.7c-5.4 1.9-8.2 7.7-6.4 13.1s7.7 8.2 13.1 6.4 8.2-7.7 6.4-13.1c-1-3-3.4-5.4-6.4-6.4z" fill="#000000" style="fill: rgb(165, 178, 186);"></path><path d="m64.6 124.4c0 5.6 4.6 10.2 10.2 10.2 4.3 0 8.1-2.7 9.6-6.8v-6.7c-1.9-5.3-7.7-8.1-13-6.2-4 1.5-6.7 5.2-6.8 9.5z" fill="#000000" style="fill: rgb(165, 178, 186);"></path><path d="m361.5 416.8c-5.6 0-10.2 4.6-10.2 10.2s4.6 10.2 10.2 10.2 10.2-4.6 10.2-10.2-4.6-10.2-10.2-10.2z" fill="#000000" style="fill: rgb(165, 178, 186);"></path><path d="m179.7 46.5v.2c5.8 2.7 12.4 4.4 17.8 4.4h109.7l145.8 1.6c6.6 0 13 1.9 18.5 5.4l-.5-34c0-4-1.4-24.1-21.3-24.1h-260.8c-13.2 0-23.9 11.5-23.9 25.6 0 3.5.7 7 2 10.2 3.3 4.6 7.6 8.3 12.7 10.7z" fill="#000000" style="fill: rgb(165, 178, 186);"></path><path d="m54.8 217.8c0 5.6 4.6 10.2 10.2 10.2s10.2-4.6 10.2-10.2-4.6-10.2-10.2-10.2c-5.6 0-10.2 4.6-10.2 10.2z" fill="#000000" style="fill: rgb(165, 178, 186);"></path><path d="m21.7 163.6c-5.6 0-10.2 4.6-10.2 10.2s4.6 10.2 10.2 10.2 10.2-4.6 10.2-10.2c.1-5.6-4.4-10.1-10-10.2-.1 0-.1 0-.2 0z" fill="#000000" style="fill: rgb(165, 178, 186);"></path><path d="m287.5 179.5h-39.3v29.5h39.3c8.1.7 15.3-5.4 16-13.5s-5.4-15.3-13.5-16c-.9-.1-1.7-.1-2.5 0z" fill="#000000" style="fill: rgb(165, 178, 186);"></path><path d="m41 75.3c5.6 0 10.2-4.6 10.2-10.2s-4.6-10.2-10.2-10.2-10.2 4.6-10.2 10.2c-.1 5.6 4.4 10.1 10 10.2z" fill="#000000" style="fill: rgb(165, 178, 186);"></path><path d="m52.9 359.8c-5.6 0-10.2 4.6-10.2 10.2s4.6 10.2 10.2 10.2 10.2-4.6 10.2-10.2-4.6-10.2-10.2-10.2z" fill="#000000" style="fill: rgb(165, 178, 186);"></path><path d="m10.2 280.2c-5.6-.1-10.2 4.5-10.3 10.1-.1 5.6 4.5 10.2 10.1 10.3s10.2-4.5 10.3-10.1v-.1c0-5.6-4.5-10.1-10.1-10.2z" fill="#000000" style="fill: rgb(165, 178, 186);"></path><path d="m228.9 412c-5.6 0-10.2 4.6-10.2 10.2s4.6 10.2 10.2 10.2 10.2-4.6 10.2-10.2-4.6-10.2-10.2-10.2z" fill="#000000" style="fill: rgb(165, 178, 186);"></path><path d="m287.5 138h-39.3v29.5h39.3c8.1.7 15.3-5.4 16-13.5s-5.4-15.3-13.5-16c-.9-.1-1.7-.1-2.5 0z" fill="#000000" style="fill: rgb(165, 178, 186);"></path><path d="m272.2 100.6c-41.9 0-75.9 34-75.9 75.9s34 75.9 75.9 75.9 75.9-34 75.9-75.9c0-41.9-34-75.9-75.9-75.9zm42.1 93.7c0 13.8-10.6 25.4-24.4 26.6v11.5h-12v-11.4h-15.7v11.4h-12v-11.4h-8c-3.3 0-6-2.7-6-6v-83c0-3.3 2.7-6 6-6h8v-11.4h12v11.4h15.7v-11.4h12v11.6c14.7 1.3 25.5 14.3 24.2 29-.6 7.2-4.1 13.8-9.7 18.3 6.3 5.1 9.9 12.7 9.9 20.8z" fill="#000000" style="fill: rgb(165, 178, 186);"></path><path d="m371.7 201.5v-37.8c.1-19.4 15.8-35.1 35.2-35.1h68.6v-41.4c0-12.4-10.1-22.5-22.5-22.5l-145.9-1.6h-109.7c-8.4 0-20.7-3.3-30-9.6v242.3c.1 15.1 12.2 27.4 27.3 27.6l258.3 2.7c12.4.1 22.4-9.9 22.5-22.3v-.1-67h-68.6c-19.4-.1-35.1-15.8-35.2-35.2zm-99.5 62.9c-48.5 0-87.9-39.4-87.9-87.9s39.4-87.9 87.9-87.9 87.9 39.4 87.9 87.9c-.1 48.5-39.4 87.8-87.9 87.9z" fill="#000000" style="fill: rgb(165, 178, 186);"></path><path d="m423.6 171c-6.5-.1-11.7 5.1-11.8 11.6s5.1 11.7 11.6 11.8 11.7-5.1 11.8-11.6c0-.1 0-.1 0-.2 0-6.4-5.2-11.6-11.6-11.6z" fill="#000000" style="fill: rgb(165, 178, 186);"></path><path d="m487.5 140.8c-.4-.2-.9-.2-1.4-.2h-79.2c-12.8 0-23.1 10.3-23.2 23.1v37.8c0 12.8 10.4 23.2 23.2 23.2h79.2l1.4-.2c1.9-.7 3.1-2.4 3.2-4.4v-75c0-2-1.3-3.7-3.2-4.3zm-63.9 65.5c-13.1.1-23.7-10.5-23.8-23.6s10.5-23.7 23.6-23.8 23.7 10.5 23.8 23.6v.1c0 13.1-10.5 23.6-23.6 23.7z" fill="#000000" style="fill: rgb(165, 178, 186);"></path><path d="m136.6 70.1h18.8v12h-18.8z" fill="#000000" style="fill: rgb(165, 178, 186);"></path><path d="m90 71.1 40.8 37.6h24.6v-12h-19.9l-40.8-37.6h-32.4c.5 2 .8 4 .8 6s-.3 4-.8 6z" fill="#000000" style="fill: rgb(165, 178, 186);"></path><path d="m97.6 221.1 19.4 18.9h38.4v-12h-33.5l-19.4-18.9h-17.2c1.2 2.7 1.8 5.7 1.8 8.7 0 1.1 0 2.2-.2 3.3z" fill="#000000" style="fill: rgb(165, 178, 186);"></path><path d="m43.9 173.8c0 3-.6 6-1.8 8.7h17.2l19.4-18.9h76.7v-12h-81.6l-19.4 18.9h-10.7c.1 1.1.2 2.2.2 3.3z" fill="#000000" style="fill: rgb(165, 178, 186);"></path><path d="m155.4 130.4v-12h-59.3c.6 1.9.8 4 .8 6s-.2 4.1-.8 6z" fill="#000000" style="fill: rgb(165, 178, 186);"></path><path d="m284.2 395.8v-59.4l-12-.2v59.6c3.9-1.1 8.1-1.1 12 0z" fill="#000000" style="fill: rgb(165, 178, 186);"></path><path d="m239.1 365.3-18.9 19.4v17.1c2.8-1.2 5.7-1.8 8.7-1.8 1.1 0 2.2.1 3.3.3v-10.7l18.9-19.5v-34.1h-12z" fill="#000000" style="fill: rgb(165, 178, 186);"></path><path d="m108.6 187.6h46.8v12h-46.8z" fill="#000000" style="fill: rgb(165, 178, 186);"></path><path d="m317.9 336.7v24.4l37.6 40.8v3.7c3.9-1.1 8.1-1.1 12 0v-8.4l-37.6-40.8v-19.6z" fill="#000000" style="fill: rgb(165, 178, 186);"></path><path d="m191.3 335.2v20.2h12v-19.9h-8.7z" fill="#000000" style="fill: rgb(165, 178, 186);"></path><path d="m92.4 296.7-45.5 31.1v20.9c3.9-1.2 8.1-1.2 12 0v-14.6l37.2-25.4h61.4c-1.3-3.9-2-7.9-2.1-12z" fill="#000000" style="fill: rgb(165, 178, 186);"></path><path d="m51.3 296.4 40.8-25.6h63.3v-12h-66.7l-40.8 25.6h-16.4c1.1 3.9 1.1 8.1 0 12z" fill="#000000" style="fill: rgb(165, 178, 186);"></path></g></g></svg>